<?xml version="1.0" encoding="iso-8859-1"?>
<!-- Generator: Adobe Illustrator 19.0.0, SVG Export Plug-In . SVG Version: 6.00 Build 0)  -->
<svg version="1.1" id="Layer_1" xmlns="http://www.w3.org/2000/svg" xmlns:xlink="http://www.w3.org/1999/xlink" x="0px" y="0px"
	 viewBox="0 0 300 300" style="enable-background:new 0 0 300 300;" xml:space="preserve">
<g>
	<g>
		<g>
			<path d="M0,38.71v208.065h24.194v14.516h29.032v-14.516h193.548v14.516h29.032v-14.516H300V38.71H0z M43.548,251.612h-9.677
				v-4.839h9.677C43.548,246.773,43.548,251.612,43.548,251.612z M222.58,237.096H53.226H24.194H9.677v-9.677H222.58V237.096z
				 M9.677,217.742v-150H222.58v4.839h-19.355v140.323h19.355v4.838H9.677z M222.581,203.226h-9.677V82.258h9.677V203.226z
				 M222.581,58.064H9.677v-9.677h212.904V58.064z M266.129,251.612h-9.677v-4.839h9.677V251.612z M290.322,237.096h-14.516v0.001
				h-29.032h-14.516v-24.194V91.935h58.064V237.096z M290.322,82.258h-58.064v-9.678v-9.677h58.064V82.258z M290.323,53.226h-58.064
				v-4.839h58.064V53.226z"/>
			<path d="M261.29,203.226c10.674,0,19.355-8.681,19.355-19.355c0-10.674-8.68-19.355-19.355-19.355
				c-10.674,0-19.355,8.681-19.355,19.355C241.935,194.544,250.616,203.226,261.29,203.226z M261.29,174.193
				c5.337,0,9.677,4.34,9.677,9.677c0,5.337-4.34,9.677-9.677,9.677c-5.337,0-9.677-4.34-9.677-9.677
				C251.613,178.534,255.953,174.193,261.29,174.193z"/>
			<rect x="241.935" y="101.612" width="14.516" height="9.677"/>
			<rect x="266.129" y="101.612" width="14.516" height="9.677"/>
			<rect x="241.935" y="120.968" width="14.516" height="9.677"/>
			<rect x="266.129" y="120.968" width="14.516" height="9.677"/>
			<rect x="241.935" y="140.323" width="14.516" height="9.677"/>
			<rect x="266.129" y="140.323" width="14.516" height="9.677"/>
			<rect x="24.194" y="198.386" width="9.677" height="9.677"/>
			<rect x="43.548" y="198.386" width="9.677" height="9.677"/>
			<rect x="62.903" y="198.386" width="9.677" height="9.677"/>
			<rect x="82.258" y="198.386" width="9.677" height="9.677"/>
			<rect x="101.613" y="198.386" width="9.677" height="9.677"/>
			<rect x="120.968" y="198.386" width="9.677" height="9.677"/>
			<rect x="140.323" y="198.386" width="9.677" height="9.677"/>
			<rect x="159.677" y="198.386" width="9.677" height="9.677"/>
			<rect x="179.032" y="198.386" width="9.677" height="9.677"/>
		</g>
	</g>
</g>
<g>
</g>
<g>
</g>
<g>
</g>
<g>
</g>
<g>
</g>
<g>
</g>
<g>
</g>
<g>
</g>
<g>
</g>
<g>
</g>
<g>
</g>
<g>
</g>
<g>
</g>
<g>
</g>
<g>
</g>
</svg>
