<?xml version='1.0' encoding='iso-8859-1'?>
<svg version="1.1" xmlns="http://www.w3.org/2000/svg" viewBox="0 0 463 463" xmlns:xlink="http://www.w3.org/1999/xlink" enable-background="new 0 0 463 463">
  <g>
    <path d="m367.5,0h-272c-21.78,0-39.5,17.72-39.5,39.5v368c0,10.336 6.71,19.128 16,22.266v9.734c0,12.958 10.542,23.5 23.5,23.5h272c12.958,0 23.5-10.542 23.5-23.5v-9.734c9.29-3.138 16-11.93 16-22.266v-368c0-21.78-17.72-39.5-39.5-39.5zm-272,15h272c13.509,0 24.5,10.99 24.5,24.5v56.5h-321v-56.5c0-13.51 10.991-24.5 24.5-24.5zm272,433h-272c-4.687,0-8.5-3.813-8.5-8.5v-8.5h289v8.5c0,4.687-3.813,8.5-8.5,8.5zm16-32h-304c-4.687,0-8.5-3.813-8.5-8.5v-296.5h321v296.5c0,4.687-3.813,8.5-8.5,8.5z"/>
    <path d="m263.5,79c12.958,0 23.5-10.542 23.5-23.5s-10.542-23.5-23.5-23.5-23.5,10.542-23.5,23.5 10.542,23.5 23.5,23.5zm0-32c4.687,0 8.5,3.813 8.5,8.5s-3.813,8.5-8.5,8.5-8.5-3.813-8.5-8.5 3.813-8.5 8.5-8.5z"/>
    <path d="m327.5,79c12.958,0 23.5-10.542 23.5-23.5s-10.542-23.5-23.5-23.5-23.5,10.542-23.5,23.5 10.542,23.5 23.5,23.5zm0-32c4.687,0 8.5,3.813 8.5,8.5s-3.813,8.5-8.5,8.5-8.5-3.813-8.5-8.5 3.813-8.5 8.5-8.5z"/>
    <path d="m135.5,79c12.958,0 23.5-10.542 23.5-23.5s-10.542-23.5-23.5-23.5-23.5,10.542-23.5,23.5 10.542,23.5 23.5,23.5zm0-32c4.687,0 8.5,3.813 8.5,8.5s-3.813,8.5-8.5,8.5-8.5-3.813-8.5-8.5 3.813-8.5 8.5-8.5z"/>
    <path d="m199.5,79c12.958,0 23.5-10.542 23.5-23.5s-10.542-23.5-23.5-23.5-23.5,10.542-23.5,23.5 10.542,23.5 23.5,23.5zm0-32c4.687,0 8.5,3.813 8.5,8.5s-3.813,8.5-8.5,8.5-8.5-3.813-8.5-8.5 3.813-8.5 8.5-8.5z"/>
    <path d="m351.5,136h-240c-8.547,0-15.5,6.953-15.5,15.5v224c0,8.547 6.953,15.5 15.5,15.5h240c8.547,0 15.5-6.953 15.5-15.5v-224c0-8.547-6.953-15.5-15.5-15.5zm-240,15h240c0.276,0 0.5,0.225 0.5,0.5v48.5h-241v-48.5c0-0.275 0.224-0.5 0.5-0.5zm240,225h-240c-0.276,0-0.5-0.225-0.5-0.5v-160.5h241v160.5c0,0.275-0.224,0.5-0.5,0.5z"/>
    <path d="m167.5,183h128c4.142,0 7.5-3.357 7.5-7.5s-3.358-7.5-7.5-7.5h-128c-4.142,0-7.5,3.357-7.5,7.5s3.358,7.5 7.5,7.5z"/>
    <path d="m231,239.5c0-4.143-3.358-7.5-7.5-7.5s-7.5,3.357-7.5,7.5c0,15.992 4.775,24.349 8.988,31.721 3.762,6.585 7.012,12.271 7.012,24.279s-3.25,17.694-7.012,24.279c-4.213,7.372-8.988,15.729-8.988,31.721 0,4.143 3.358,7.5 7.5,7.5s7.5-3.357 7.5-7.5c0-12.008 3.25-17.694 7.012-24.279 4.213-7.372 8.988-15.729 8.988-31.721s-4.775-24.349-8.988-31.721c-3.762-6.585-7.012-12.271-7.012-24.279z"/>
    <path d="m183,239.5c0-4.143-3.358-7.5-7.5-7.5s-7.5,3.357-7.5,7.5c0,15.992 4.775,24.349 8.988,31.721 3.762,6.585 7.012,12.271 7.012,24.279s-3.25,17.694-7.012,24.279c-4.213,7.372-8.988,15.729-8.988,31.721 0,4.143 3.358,7.5 7.5,7.5s7.5-3.357 7.5-7.5c0-12.008 3.25-17.694 7.012-24.279 4.213-7.372 8.988-15.729 8.988-31.721s-4.775-24.349-8.988-31.721c-3.762-6.585-7.012-12.271-7.012-24.279z"/>
    <path d="m279,239.5c0-4.143-3.358-7.5-7.5-7.5s-7.5,3.357-7.5,7.5c0,15.992 4.775,24.349 8.988,31.721 3.762,6.585 7.012,12.271 7.012,24.279s-3.25,17.694-7.012,24.279c-4.213,7.372-8.988,15.729-8.988,31.721 0,4.143 3.358,7.5 7.5,7.5s7.5-3.357 7.5-7.5c0-12.008 3.25-17.694 7.012-24.279 4.213-7.372 8.988-15.729 8.988-31.721s-4.775-24.349-8.988-31.721c-3.762-6.585-7.012-12.271-7.012-24.279z"/>
  </g>
</svg>
