<?xml version="1.0" standalone="no"?>
<!DOCTYPE svg PUBLIC "-//W3C//DTD SVG 1.0//EN" "http://www.w3.org/TR/2001/REC-SVG-20010904/DTD/svg10.dtd">
<svg xmlns="http://www.w3.org/2000/svg" xmlns:xlink="http://www.w3.org/1999/xlink" id="body_1" width="102" height="77">

<g transform="matrix(0.77 0 0 0.77 12.499998 -0)">
    <path d="M90 23.27L76 23.27L76 21.27C 76 19.126408 74.85641 17.145645 73 16.073849C 71.14359 15.002051 68.85641 15.002051 67 16.073849C 65.14359 17.145645 64 19.126408 64 21.27L64 21.27L64 23.27L40 23.27L40 21.27C 40 19.126408 38.856407 17.145645 37 16.073849C 35.143593 15.002051 32.856407 15.002051 31 16.073849C 29.143593 17.145645 28 19.126408 28 21.27L28 21.27L28 23.27L14 23.27C 12.895431 23.27 12 24.16543 12 25.27L12 25.27L12 85.270004C 12 86.37457 12.895431 87.270004 14 87.270004L14 87.270004L90 87.270004C 91.10457 87.270004 92 86.37457 92 85.270004L92 85.270004L92 25.270004C 92 24.165434 91.10457 23.270004 90 23.270004L90 23.270004L90 23.27zM68 21.27C 68 20.55547 68.381195 19.895216 69 19.537949C 69.618805 19.180683 70.381195 19.180683 71 19.53795C 71.618805 19.895216 72 20.55547 72 21.27L72 21.27L72 29.27C 72 30.37457 71.10457 31.27 70 31.27C 68.89543 31.27 68 30.37457 68 29.27zM32 21.27C 32 20.55547 32.3812 19.895216 33 19.537949C 33.6188 19.180683 34.3812 19.180683 35 19.53795C 35.6188 19.895216 36 20.55547 36 21.27L36 21.27L36 29.27C 36 30.37457 35.10457 31.27 34 31.27C 32.89543 31.27 32 30.37457 32 29.27zM28 27.27L28 29.27C 28 32.58371 30.68629 35.27 34 35.27C 37.31371 35.27 40 32.58371 40 29.27L40 29.27L40 27.27L64 27.27L64 29.27C 64 32.58371 66.686295 35.27 70 35.27C 73.313705 35.27 76 32.58371 76 29.27L76 29.27L76 27.27L88 27.27L88 39.27L16 39.27L16 27.27zM16 83.270004L16 43.270004L88 43.270004L88 83.270004z" stroke="none" fill="#2596BE" fill-rule="nonzero" />
    <path d="M58 51.27L46 51.27C 44.89543 51.27 44 52.165432 44 53.27C 44 54.37457 44.89543 55.27 46 55.27L46 55.27L58 55.27C 59.10457 55.27 60 54.37457 60 53.27C 60 52.165432 59.10457 51.27 58 51.27zM78 51.27L70 51.27C 68.89543 51.27 68 52.165432 68 53.27C 68 54.37457 68.89543 55.27 70 55.27L70 55.27L78 55.27C 79.10457 55.27 80 54.37457 80 53.27C 80 52.165432 79.10457 51.27 78 51.27zM34 51.27L26 51.27C 24.89543 51.27 24 52.165432 24 53.27C 24 54.37457 24.89543 55.27 26 55.27L26 55.27L34 55.27C 35.10457 55.27 36 54.37457 36 53.27C 36 52.165432 35.10457 51.27 34 51.27zM58 61.27L46 61.27C 44.895428 61.270004 44 62.165432 44 63.270004C 44 64.37457 44.895428 65.270004 46 65.270004L46 65.270004L58 65.270004C 58.71453 65.270004 59.374786 64.88881 59.73205 64.270004C 60.089317 63.651203 60.089317 62.888805 59.73205 62.270004C 59.374786 61.651203 58.71453 61.270004 58 61.270004zM78 61.27L70 61.27C 68.89543 61.270004 68 62.165432 68 63.270004C 68 64.37457 68.89543 65.270004 70 65.270004L70 65.270004L78 65.270004C 79.10457 65.270004 80 64.37457 80 63.270004C 80 62.165436 79.10457 61.270004 78 61.270004zM34 61.27L26 61.27C 24.89543 61.270004 23.999998 62.165432 23.999998 63.270004C 23.999998 64.37457 24.89543 65.270004 26 65.270004L26 65.270004L34 65.270004C 34.71453 65.270004 35.374786 64.88881 35.73205 64.270004C 36.089317 63.651203 36.089317 62.888805 35.73205 62.270004C 35.374786 61.651203 34.71453 61.270004 34 61.270004zM58 71.27L46 71.27C 44.89543 71.27 44 72.16543 44 73.27C 44 74.374565 44.89543 75.27 46 75.27L46 75.27L58 75.27C 59.10457 75.27 60 74.374565 60 73.27C 60 72.16543 59.10457 71.27 58 71.27zM78 71.27L70 71.27C 68.89543 71.27 68 72.16543 68 73.27C 68 74.374565 68.89543 75.27 70 75.27L70 75.27L78 75.27C 79.10457 75.27 80 74.374565 80 73.27C 80 72.16543 79.10457 71.27 78 71.27zM34 71.27L26 71.27C 24.89543 71.27 24 72.16543 24 73.27C 24 74.374565 24.89543 75.27 26 75.27L26 75.27L34 75.27C 35.10457 75.27 36 74.374565 36 73.27C 36 72.16543 35.10457 71.27 34 71.27z" stroke="none" fill="#2596BE" fill-rule="nonzero" />
</g>
</svg>