<?xml version="1.0" standalone="no"?>
<!DOCTYPE svg PUBLIC "-//W3C//DTD SVG 1.0//EN" "http://www.w3.org/TR/2001/REC-SVG-20010904/DTD/svg10.dtd">
<svg xmlns="http://www.w3.org/2000/svg" xmlns:xlink="http://www.w3.org/1999/xlink" id="body_1" width="102" height="77">

<g transform="matrix(0.77 0 0 0.77 12.499998 -0)">
    <path d="M44.37 49.59L26.18 49.59C 25.178751 49.5955 24.369987 50.408733 24.37 51.41L24.37 51.41L24.37 82.32L20.730001 82.32L20.730001 40.5C 20.7294 39.495266 19.914736 38.681087 18.910002 38.681087C 17.905268 38.681087 17.090603 39.495266 17.090002 40.5L17.090002 40.5L17.090002 84.14C 17.08198 84.6288 17.269861 85.10048 17.61176 85.44989C 17.953657 85.79931 18.421146 85.9974 18.91 86L18.91 86L44.37 86C 45.37125 85.99449 46.180016 85.18126 46.18 84.18L46.18 84.18L46.18 51.41C 46.180016 50.408733 45.37125 49.5955 44.37 49.59zM28 53.23L42.55 53.23L42.55 82.32L28 82.32z" stroke="none" fill="#2596BE" fill-rule="nonzero" />
    <path d="M40.73 67.78C 40.73 68.28258 40.55231 68.71156 40.196934 69.06693C 39.841557 69.42232 39.41258 69.600006 38.91 69.6C 38.40742 69.600006 37.978443 69.42232 37.623066 69.06693C 37.26769 68.71156 37.09 68.28258 37.09 67.78C 37.09 67.27742 37.26769 66.84845 37.623066 66.493065C 37.978443 66.137695 38.40742 65.96001 38.91 65.96C 39.41258 65.96001 39.841557 66.137695 40.196934 66.493065C 40.55231 66.84845 40.73 67.27742 40.73 67.78C 40.73 67.80118 40.72963 67.82236 40.72889 67.84351" stroke="none" fill="#2596BE" fill-rule="nonzero" />
    <path d="M58.91 31.41C 58.91 27.73344 56.695293 24.418896 53.29859 23.011936C 49.901894 21.604977 45.99212 22.382679 43.3924 24.9824C 40.79268 27.582123 40.014977 31.491894 41.421936 34.888596C 42.828896 38.285294 46.143436 40.5 49.82 40.5C 54.837986 40.49449 58.904488 36.427986 58.91 31.41zM49.82 26C 52.122982 26.004261 54.173748 27.458223 54.94 29.630001L54.94 29.630001L44.7 29.630001C 45.46625 27.458223 47.517017 26.004261 49.82 26zM44.7 33.23L54.940002 33.23C 54.182796 35.41023 52.12798 36.871796 49.820004 36.871796C 47.512024 36.871796 45.45721 35.41023 44.700005 33.23zM51.64 75.05L73.46 75.05C 73.94177 75.05 74.40368 74.85793 74.74341 74.51633C 75.08314 74.17472 75.27266 73.71177 75.27 73.23L75.27 73.23L75.27 51.41C 75.27001 50.408737 74.46125 49.595505 73.46 49.59L73.46 49.59L51.64 49.59C 50.634842 49.59 49.82 50.404842 49.82 51.41L49.82 51.41L49.82 73.229996C 49.817318 73.71351 50.00821 74.17799 50.35011 74.51989C 50.692005 74.86179 51.156487 75.05268 51.64 75.049995zM71.64 53.230003L71.64 71.41L64.37 71.41L64.37 58.69C 64.3694 57.685265 63.554737 56.871086 62.550003 56.871086C 61.54527 56.871086 60.730606 57.685265 60.730003 58.69L60.730003 58.69L60.730003 71.409996L53.460003 71.409996L53.460003 53.23z" stroke="none" fill="#2596BE" fill-rule="nonzero" />
    <path d="M85.68 31.37L80.68 28.11C 80.71287 28.002241 80.73629 27.891825 80.75 27.78L80.75 27.78L80.75 13.23C 81.75516 13.2300005 82.57 12.415158 82.57 11.41C 82.57 10.404841 81.75516 9.589999 80.75 9.589999L80.75 9.589999L69.82 9.589999C 69.16978 9.589999 68.56895 9.93689 68.243835 10.5C 67.918724 11.06311 67.918724 11.75689 68.243835 12.320001C 68.56895 12.88311 69.16978 13.2300005 69.82 13.23L69.82 13.23L69.82 18.689999C 69.8206 19.69473 70.63527 20.50891 71.64 20.50891C 72.64473 20.50891 73.4594 19.69473 73.46 18.689999L73.46 18.689999L73.46 13.229999L77.09 13.229999L77.09 25.789999L54.15 10.88C 51.50777 9.199991 48.13223 9.199991 45.49 10.88L45.49 10.88L14 31.37C 11.39961 33.036835 9.82489 35.911263 9.82 39L9.82 39L9.82 40.5C 9.819999 41.505157 10.634841 42.32 11.639999 42.32C 12.645158 42.32 13.46 41.505157 13.46 40.5L13.46 40.5L13.46 39C 13.450912 37.15015 14.385914 35.423412 15.940001 34.42L15.940001 34.42L47.47 13.929998C 48.90473 13.020724 50.735268 13.020724 52.170002 13.929998L52.170002 13.929998L83.7 34.42C 85.162094 35.363308 86.08124 36.95228 86.17 38.69L86.17 38.69L80.729996 38.69C 80.24822 38.68734 79.78527 38.87686 79.44366 39.21659C 79.10205 39.55632 78.90999 40.018223 78.909996 40.5L78.909996 40.5L78.909996 82.32L51.64 82.32C 50.635265 82.3206 49.821087 83.13527 49.821087 84.14C 49.821087 85.14473 50.635265 85.9594 51.64 85.96L51.64 85.96L80.729996 85.96C 81.73288 85.95454 82.54453 85.14288 82.549995 84.14L82.549995 84.14L82.549995 42.32L88 42.32C 88.48351 42.32268 88.948 42.13179 89.289894 41.78989C 89.6318 41.447994 89.822685 40.983513 89.82 40.5L89.82 40.5L89.82 39C 89.82387 35.91899 88.26512 33.046227 85.68 31.369999L85.68 31.369999L85.68 31.37z" stroke="none" fill="#2596BE" fill-rule="nonzero" />
</g>
</svg>