<?xml version="1.0" standalone="no"?>
<!DOCTYPE svg PUBLIC "-//W3C//DTD SVG 1.0//EN" "http://www.w3.org/TR/2001/REC-SVG-20010904/DTD/svg10.dtd">
<svg xmlns="http://www.w3.org/2000/svg" xmlns:xlink="http://www.w3.org/1999/xlink" id="body_1" width="102" height="77">

<g transform="matrix(0.77 0 0 0.77 12.499998 -0)">
    <path d="M90.83 16.89C 90.82451 16.153845 90.22617 15.559979 89.490005 15.559999L89.490005 15.559999L83.07001 15.559999C 82.94616 15.561594 82.83981 15.472264 82.82001 15.349999C 82.720955 14.703769 82.16378 14.227406 81.51001 14.23L81.51001 14.23L53.51001 14.29C 53.190865 14.287983 52.881794 14.401665 52.64001 14.61L52.64001 14.61L43.72001 22.26C 43.672775 22.300447 43.612164 22.321838 43.55001 22.32L43.55001 22.32L42.83001 22.32C 29.910461 22.293324 18.24224 30.038216 13.249735 41.954185C 8.257229 53.870155 10.919933 67.61936 20 76.81C 20.050177 76.856514 20.079092 76.92157 20.08 76.99L20.08 76.99L20.08 85.06C 20.14338 86.60102 21.056133 87.979774 22.45 88.64C 23.708977 89.198586 25.166779 89.07016 26.308708 88.30007C 27.450638 87.529976 28.116045 86.226555 28.07 84.85C 28.071636 84.43721 28.292511 84.05639 28.65 83.85C 29.068295 83.570366 29.607393 83.54656 30.048712 83.78823C 30.490028 84.02991 30.760324 84.496956 30.75 85L30.75 85L30.75 90.42C 30.819605 91.979164 31.76424 93.36514 33.19 94C 34.429234 94.51699 35.845196 94.377716 36.959953 93.62918C 38.07471 92.88064 38.739525 91.62272 38.73 90.28L38.73 90.28L38.73 86.28C 38.720642 86.20505 38.745678 86.129875 38.79811 86.0755C 38.850544 86.02113 38.92475 85.99338 39 86C 40.230865 86.15163 41.469826 86.22844 42.71 86.23C 50.467636 86.204254 57.95178 83.361275 63.769997 78.23C 63.818115 78.19112 63.87813 78.16994 63.939995 78.170006L63.939995 78.170006L78.939995 78.170006C 79.237045 78.170006 79.52192 78.052 79.731964 77.841965C 79.942 77.63192 80.060005 77.347046 80.06 77.05L80.06 77.05L80.06 74.44C 80.06 74.30193 80.17193 74.19 80.31 74.19L80.31 74.19L89.39 74.19C 89.74274 74.19 90.081024 74.04987 90.33045 73.80045C 90.57987 73.551025 90.72 73.21274 90.72 72.86C 90.72546 72.505615 90.58708 72.16415 90.336464 71.913536C 90.08585 71.66292 89.744385 71.52454 89.39 71.53L89.39 71.53L80.31 71.53C 80.17193 71.53 80.06 71.41807 80.06 71.28L80.06 71.28L80.06 61.13C 80.06 60.99193 80.17193 60.88 80.31 60.88L80.31 60.88L89.39 60.88C 89.74274 60.88 90.081024 60.739876 90.33045 60.49045C 90.57987 60.241028 90.72 59.902737 90.72 59.55C 90.722694 59.19644 90.58343 58.856586 90.33342 58.60658C 90.08341 58.356567 89.74355 58.217308 89.39 58.219997L89.39 58.219997L80.34 58.219997C 80.20193 58.219997 80.09 58.10807 80.09 57.969997L80.09 57.969997L80.09 55.319996C 80.090096 54.71469 79.60521 54.22091 79 54.21L79 54.21L75 54.21C 74.86193 54.21 74.75 54.098072 74.75 53.96C 74.70057 46.383823 71.952896 39.073223 67 33.34C 66.93152 33.266228 66.913956 33.15858 66.955444 33.066868C 66.99693 32.975155 67.08938 32.91727 67.19 32.920002L67.19 32.920002L81.44 32.920002C 82.092964 32.91503 82.64877 32.44344 82.76 31.800001C 82.779175 31.681442 82.879944 31.593267 83 31.590002L83 31.590002L89.44 31.590002C 89.79274 31.590002 90.13103 31.449879 90.380455 31.200455C 90.629875 30.95103 90.770004 30.61274 90.770004 30.260002C 90.76456 29.527729 90.17227 28.935444 89.44 28.930002L89.44 28.930002L83.060005 28.930002C 82.921936 28.930002 82.810005 28.818073 82.810005 28.680002L82.810005 28.680002L82.810005 18.53C 82.810005 18.39193 82.921936 18.28 83.060005 18.28L83.060005 18.28L89.48 18.28C 89.84684 18.285892 90.19982 18.139986 90.45544 17.876797C 90.71105 17.613607 90.846596 17.256516 90.83 16.890001L90.83 16.890001L90.83 16.89zM36.06 90.26C 36.05369 90.766266 35.766666 91.22712 35.31508 91.45607C 34.863487 91.68501 34.3221 91.64414 33.91 91.35C 33.573166 91.132065 33.378628 90.75062 33.4 90.35L33.4 90.35L33.4 84.84C 33.329556 83.29514 32.40398 81.91834 31.000002 81.27C 29.741026 80.7114 28.283222 80.83983 27.141293 81.60992C 25.999363 82.38001 25.333956 83.68343 25.380001 85.06C 25.378365 85.472786 25.15749 85.85361 24.800001 86.06C 24.397379 86.305664 23.895735 86.323395 23.476774 86.106766C 23.057812 85.89013 22.782288 85.47055 22.75 85L22.75 85L22.75 73.26C 22.747276 73.191986 22.772408 73.12579 22.819592 73.07672C 22.866774 73.02766 22.931927 72.99995 23 73L23 73L29.16 73C 29.29807 73 29.41 73.11193 29.41 73.25L29.41 73.25L29.41 74.55C 29.404665 75.54975 29.79877 76.510254 30.504778 77.21813C 31.210783 77.92602 32.17023 78.32267 33.17 78.32L33.17 78.32L35.809998 78.32C 35.877136 78.31714 35.9424 78.34256 35.989918 78.390076C 36.037437 78.4376 36.06286 78.50286 36.059998 78.57zM42.530003 51.9L44.480003 53.9C 44.552967 53.97031 44.57628 54.07771 44.539024 54.17194C 44.50177 54.26617 44.411324 54.328594 44.310005 54.33L44.310005 54.33L33.25 54.33C 31.163029 54.340977 29.475464 56.033005 29.47 58.120003L29.47 58.120003L29.47 64.75C 29.47 64.88807 29.35807 65 29.22 65L29.22 65L23.05 65C 22.910221 65.0001 22.795376 64.88967 22.789999 64.75L22.789999 64.75L22.839998 43.940002C 22.839998 43.80193 22.951927 43.690002 23.089998 43.690002L23.089998 43.690002L55.89 43.620003C 56.028072 43.620003 56.14 43.73193 56.14 43.870003L56.14 43.870003L56.14 53.120003C 56.142723 53.223145 56.0818 53.317368 55.98662 53.35721C 55.891445 53.39705 55.781567 53.37433 55.71 53.300003L55.71 53.300003L48.42 46C 46.774208 44.430473 44.185783 44.430473 42.539997 46C 41.753345 46.779495 41.309975 47.84048 41.308098 48.94792C 41.30622 50.055363 41.74599 51.117844 42.53 51.9zM29.450003 67.9L29.450003 70.07C 29.450003 70.20807 29.338074 70.32 29.200003 70.32L29.200003 70.32L23 70.32C 22.860222 70.3201 22.745377 70.20967 22.74 70.07L22.74 70.07L22.74 67.9C 22.739895 67.76022 22.850325 67.64538 22.99 67.64L22.99 67.64L29.2 67.64C 29.334259 67.639885 29.44463 67.74584 29.45 67.88zM42.74 83.590004C 41.489132 83.582054 40.239944 83.49521 39 83.33C 38.877884 83.307205 38.787086 83.204025 38.78 83.08L38.78 83.08L38.78 78.520004C 38.78 78.381935 38.891926 78.270004 39.03 78.270004L39.03 78.270004L58.769997 78.270004C 58.879803 78.27244 58.975155 78.34625 59.005024 78.45194C 59.034893 78.55764 58.992283 78.67045 58.899998 78.73C 54.10649 81.89972 48.486717 83.58982 42.739998 83.590004zM77.43 57.130005L77.43 75.28001C 77.43 75.418076 77.31807 75.53001 77.18 75.53001L77.18 75.53001L33.25 75.62C 32.95561 75.62 32.67328 75.50306 32.46511 75.29489C 32.256947 75.08672 32.14 74.80439 32.14 74.51L32.14 74.51L32.14 73.2C 32.14 73.06193 32.251926 72.95 32.39 72.95L32.39 72.95L42.55 72.95C 42.688072 72.95 42.8 72.838066 42.8 72.7L42.8 72.7L42.8 70.52C 42.8 70.38193 42.688072 70.27 42.55 70.27L42.55 70.27L32.4 70.27C 32.26193 70.27 32.15 70.158066 32.15 70.02L32.15 70.02L32.15 67.88C 32.15 67.74193 32.26193 67.63 32.4 67.63L32.4 67.63L42.56 67.63C 42.699677 67.624626 42.81011 67.50978 42.81 67.369995L42.81 67.369995L42.81 65.189995C 42.812862 65.122856 42.78744 65.057594 42.73992 65.01007C 42.692406 64.962555 42.62714 64.93713 42.56 64.939995L42.56 64.939995L32.37 65C 32.231926 65 32.12 64.88807 32.12 64.75L32.12 64.75L32.12 62.55C 32.12 62.411926 32.231926 62.3 32.37 62.3L32.37 62.3L42.53 62.3C 42.66807 62.3 42.78 62.188072 42.78 62.05L42.78 62.05L42.78 59.86C 42.774624 59.720325 42.65978 59.609898 42.52 59.61L42.52 59.61L32.37 59.61C 32.231926 59.61 32.12 59.498074 32.12 59.36L32.12 59.36L32.12 58.06C 32.152092 57.4611 32.650272 56.993782 33.25 57L33.25 57L48.12 57C 48.568035 56.99833 48.98559 56.772854 49.232727 56.39914C 49.479862 56.025425 49.52387 55.552925 49.35 55.14C 49.292248 54.989956 49.20368 54.85369 49.09 54.739998L49.09 54.739998L44.41 50C 43.83172 49.41553 43.83172 48.47447 44.41 47.89C 45.00085 47.327457 45.92915 47.327457 46.52 47.89L46.52 47.89L55.16 56.53C 55.409237 56.77948 55.747353 56.91976 56.1 56.92L56.1 56.92L77.159996 56.92C 77.289856 56.91261 77.40519 57.002316 77.42999 57.129997zM71.85 54.220005L59 54.25C 58.861927 54.25 58.75 54.138073 58.75 54L58.75 54L58.75 42C 58.75 41.70561 58.633053 41.42328 58.42489 41.21511C 58.21672 41.006947 57.93439 40.89 57.64 40.89L57.64 40.89L28.53 41C 28.431194 40.998703 28.342424 40.939327 28.3035 40.848503C 28.264574 40.75768 28.282799 40.652447 28.35 40.58C 31.46095 37.281082 35.600586 35.137215 40.09 34.5C 40.15651 34.492504 40.21723 34.458656 40.258583 34.40603C 40.299934 34.3534 40.318455 34.286392 40.31 34.22L40.31 34.22L40 32.07C 39.99532 32.0023 39.962204 31.93975 39.908848 31.897827C 39.85549 31.855904 39.78688 31.838528 39.72 31.85C 33.671158 32.699837 28.216637 35.942287 24.580002 40.85C 24.531805 40.911762 24.458328 40.948498 24.380001 40.949997L24.380001 40.949997L21.29 40.949997C 20.995611 40.949997 20.713278 41.066944 20.505112 41.27511C 20.296947 41.483276 20.18 41.765606 20.18 42.059998L20.18 42.059998L20.12 72.2C 20.12451 72.30947 20.057205 72.40913 19.953966 72.44583C 19.850729 72.482544 19.735619 72.44775 19.67 72.36C 15.63895 67.22867 13.461046 60.885265 13.49 54.36C 13.48057 44.902115 18.029434 36.01925 25.709122 30.498917C 33.388813 24.978584 43.258125 23.497335 52.22 26.52C 52.29956 26.552488 52.35793 26.622194 52.37594 26.706226C 52.393944 26.790258 52.369263 26.877762 52.31 26.94L52.31 26.94L49.23 30C 48.181427 31.048573 47.77191 32.576904 48.155716 34.00928C 48.53952 35.44166 49.658337 36.56048 51.090717 36.944283C 52.523098 37.328087 54.051426 36.91857 55.1 35.87L55.1 35.87L60.1 30.869999C 60.194374 30.787085 60.335625 30.787085 60.43 30.869999C 61.256042 31.492731 62.04724 32.160416 62.8 32.87L62.8 32.87L62.8 32.98L62.91 32.98C 68.7176 38.436054 72.03845 46.03175 72.1 54C 72.08475 54.126244 71.97716 54.22092 71.85 54.22zM79.85 30.220005L64.04 30.220005C 63.981277 30.21942 63.924633 30.19818 63.88 30.160006C 63.4 29.740005 62.88 29.330006 62.38 28.940006C 62.32446 28.89251 62.29248 28.823088 62.29248 28.750008C 62.29248 28.676928 62.32446 28.607506 62.38 28.560007L62.38 28.560007L63.59 27.350006C 63.638336 27.30464 63.66576 27.2413 63.66576 27.175007C 63.66576 27.108713 63.638336 27.045374 63.59 27.000006L63.59 27.000006L62.06 25.470005C 62.014633 25.421667 61.951294 25.394247 61.885002 25.394247C 61.81871 25.394247 61.75537 25.421667 61.710003 25.470005L61.710003 25.470005L53.22 34C 52.63121 34.567673 51.69879 34.567673 51.11 34C 50.531723 33.41553 50.531723 32.47447 51.11 31.89L51.11 31.89L59.61 23.39C 59.658337 23.344633 59.68576 23.281294 59.68576 23.215C 59.68576 23.148706 59.658337 23.085367 59.61 23.039999L59.61 23.039999L58.08 21.509998C 58.034634 21.46166 57.971294 21.43424 57.905003 21.43424C 57.83871 21.43424 57.77537 21.46166 57.730003 21.509998L57.730003 21.509998L54.800003 24.449999C 54.732582 24.519878 54.628536 24.539886 54.540005 24.499998C 52.429535 23.673397 50.23726 23.07337 48 22.71C 47.901077 22.697922 47.81878 22.628248 47.790543 22.532679C 47.762306 22.437109 47.793526 22.333897 47.87 22.269999L47.87 22.269999L54 17C 54.04812 16.961115 54.10813 16.939934 54.17 16.94L54.17 16.94L79.97 16.890001C 80.10807 16.890001 80.22 17.00193 80.22 17.140001L80.22 17.140001L80.22 29.960001C 80.23181 30.046198 80.19796 30.132338 80.13062 30.187431C 80.063286 30.242525 79.972145 30.258648 79.89 30.230001z" stroke="none" fill="#2596BE" fill-rule="nonzero" />
    <path d="M31.36 15.47C 33.52979 15.829769 35.230232 17.53021 35.59 19.7C 35.70159 20.336176 36.254112 20.800215 36.9 20.800215C 37.54589 20.800215 38.09841 20.336176 38.21 19.7C 38.58132 17.530603 40.280598 15.831326 42.449997 15.460001C 43.178448 15.337591 43.67046 14.648775 43.549995 13.920001C 43.455727 13.361689 43.01831 12.924273 42.459995 12.830001C 40.28965 12.474982 38.589874 10.77118 38.239994 8.6C 38.14151 7.949796 37.582615 7.469183 36.924995 7.469183C 36.267376 7.469183 35.70848 7.949796 35.609993 8.6C 35.244297 10.772306 33.542297 12.474304 31.369993 12.84C 30.644663 12.967382 30.155247 13.652565 30.269993 14.38C 30.364264 14.938313 30.80168 15.375729 31.359993 15.47L31.359993 15.47L31.36 15.47zM36.91 12.24C 37.428497 12.978601 38.0714 13.621502 38.81 14.139999C 38.07107 14.662109 37.428223 15.308338 36.91 16.05C 36.391502 15.311398 35.7486 14.668498 35.01 14.15C 35.748928 13.62789 36.391777 12.981661 36.91 12.24zM25.49 48.99L28.16 48.980003L28.16 46.320004L25.5 46.33L25.49 48.99zM30.81 51.64L33.48 51.64L33.48 48.98L30.82 48.98L30.81 51.64zM36.15 48.97L38.81 48.960003L38.82 46.300003L36.15 46.300003L36.15 48.97z" stroke="none" fill="#2596BE" fill-rule="nonzero" />
</g>
</svg>